<?xml version="1.0" encoding="UTF-8"?>
<svg width="400px" height="400px" viewBox="0 0 400 400" version="1.1" xmlns="http://www.w3.org/2000/svg" xmlns:xlink="http://www.w3.org/1999/xlink">
    <!-- Generator: Sketch 49.2 (51160) - http://www.bohemiancoding.com/sketch -->
    <title>Artboard</title>
    <desc>Created with Sketch.</desc>
    <defs></defs>
    <g id="Artboard" stroke="none" stroke-width="1" fill="none" fill-rule="evenodd">
        <g id="003-dribbble-logo" fill="#2F3E50" fill-rule="nonzero">
            <path d="M372.786333,99.5015945 C354.920273,68.8938497 330.686105,44.6596811 300.077449,26.794533 C269.463326,8.93029613 236.043736,0 199.793166,0 C163.546241,0 130.116629,8.93029613 99.5079727,26.794533 C68.8974943,44.6569476 44.6633257,68.8911162 26.7972665,99.5015945 C8.93029613,130.113895 0,163.543508 0,199.787699 C0,236.033713 8.93302961,269.457859 26.794533,300.071982 C44.6596811,330.679727 68.8938497,354.913895 99.504328,372.780866 C130.116629,390.644191 163.543508,399.575399 199.789522,399.575399 C236.035535,399.575399 269.466059,390.644191 300.076538,372.780866 C330.685194,354.920273 354.918451,330.679727 372.782688,300.071982 C390.644191,269.460592 399.573576,236.031891 399.573576,199.787699 C399.574487,163.539863 390.644191,130.109339 372.786333,99.5015945 Z M199.790433,29.1362187 C242.798178,29.1362187 280.346241,43.3567198 312.429157,71.7968109 L309.177221,76.3462415 C307.876993,78.1703872 304.625057,81.6783599 299.424146,86.8838269 C294.222323,92.084738 288.542141,97.0305239 282.386333,101.712073 C276.225057,106.395444 267.862415,111.727563 257.279271,117.711162 C246.699772,123.694761 235.42779,128.943964 223.459681,133.452392 C203.517084,96.6824601 182.187699,63.5580866 159.467882,34.0774487 C173.170843,30.7826879 186.610478,29.1362187 199.790433,29.1362187 Z M66.0810934,93.904328 C82.7289294,72.923918 103.016856,56.7927107 126.952164,45.5216401 C148.456492,74.1366743 169.612756,106.916629 190.425513,143.855125 C137.703872,157.729385 85.1571754,164.66697 32.7817768,164.664238 C38.3343964,138.47836 49.4332574,114.889294 66.0810934,93.904328 Z M40.5831435,261.315718 C32.9512528,241.805923 29.1362187,221.294761 29.1362187,199.787699 C29.1362187,197.358542 29.2255125,195.53713 29.3968109,194.324374 C92.18041,194.324374 150.540319,186.262415 204.475626,170.130296 C210.026424,180.882005 214.622323,190.507517 218.264237,199.007745 C217.561731,199.353986 216.442825,199.742141 214.881093,200.176765 C213.314806,200.610478 212.190433,200.911162 211.490661,201.087016 L201.867882,204.468337 C195.274715,206.897494 186.644191,211.060592 175.982688,216.953986 C165.318451,222.856492 154.002733,229.876082 142.035535,238.029157 C130.068337,246.183144 117.711162,256.978588 104.965831,270.42369 C92.2186788,283.863326 81.509795,298.297039 72.8382688,313.731207 C58.9640091,298.297039 48.2132118,280.820046 40.5831435,261.315718 Z M199.790433,370.441913 C159.207289,370.441913 122.961276,357.433257 91.0496583,331.421412 L94.952164,334.284282 C101.021412,320.926651 109.951708,308.092027 121.747608,295.781321 C133.541686,283.470615 144.900228,273.53713 155.825968,265.990888 C166.751708,258.451936 178.630524,251.342141 191.466059,244.656948 C204.298861,237.98451 213.052392,233.731207 217.739408,231.916173 C222.422779,230.095672 226.152164,228.661503 228.926651,227.619134 L229.444191,227.357631 L229.968109,227.357631 C246.958542,271.928018 259.104328,315.114351 266.385421,356.910251 C244.880182,365.932574 222.685194,370.43918 199.790433,370.441913 Z M343.394989,292.0082 C330.560364,311.867882 314.514806,328.303417 295.270159,341.305695 C288.153986,301.418679 277.060592,260.74533 261.968109,219.299317 C296.480182,213.917084 331.94533,216.436446 368.365376,226.838269 C364.548519,250.424601 356.223235,272.152164 343.394989,292.0082 Z M367.841458,197.446925 C366.107517,197.102506 363.93713,196.708884 361.336674,196.277904 C358.736219,195.846925 355.568109,195.323918 351.838724,194.717084 C348.114806,194.110251 343.946241,193.548064 339.353986,193.026879 C334.757175,192.506606 329.85877,192.030979 324.651481,191.597267 C319.450569,191.161731 313.899772,190.818223 308.006378,190.555809 C302.102961,190.297039 296.123007,190.165831 290.051936,190.165831 C283.987244,190.165831 277.6082,190.341686 270.934852,190.686105 C264.259681,191.02779 257.801367,191.641913 251.558998,192.507517 C251.03508,191.63918 250.386333,190.207745 249.606378,188.212301 C248.827335,186.21959 248.25877,184.699772 247.922551,183.659226 C244.623235,176.375399 240.806378,168.136674 236.466515,158.947608 C248.433713,154.088383 259.839636,148.497494 270.685194,142.165831 C281.520729,135.834169 290.185877,130.201367 296.693394,125.259226 C303.198178,120.311617 309.353986,115.065148 315.162642,109.517084 C320.974943,103.968109 324.741686,100.111162 326.482005,97.9425968 C328.218679,95.7703872 329.865148,93.6473804 331.424146,91.5690205 L331.685649,91.3066059 C357.005011,122.176765 369.930752,157.727563 370.444647,197.966287 L367.841458,197.446925 Z" id="Shape"></path>
        </g>
    </g>
</svg>