<?xml version="1.0" encoding="UTF-8"?>
<svg width="400px" height="400px" viewBox="0 0 400 400" version="1.1" xmlns="http://www.w3.org/2000/svg" xmlns:xlink="http://www.w3.org/1999/xlink">
    <!-- Generator: Sketch 49.2 (51160) - http://www.bohemiancoding.com/sketch -->
    <title>Artboard</title>
    <desc>Created with Sketch.</desc>
    <defs></defs>
    <g id="Artboard" stroke="none" stroke-width="1" fill="none" fill-rule="evenodd">
        <g id="002-linkedin" transform="translate(0.000000, 7.000000)" fill="#2F3E50" fill-rule="nonzero">
            <path d="M81.2183946,122.509269 L11.7697941,122.509269 C5.26999929,122.509269 0,127.850792 0,134.438801 L0,373.310458 C0,379.898467 5.26999929,385.23999 11.7697941,385.23999 L81.219169,385.23999 C87.7189639,385.23999 92.9889632,379.898467 92.9889632,373.310458 L92.9889632,134.438801 C92.9881887,127.850792 87.7189639,122.509269 81.2183946,122.509269 Z M69.4493749,361.380925 L23.5395883,361.380925 L23.5395883,146.368334 L69.4493749,146.368334 L69.4493749,361.380925 Z" id="Shape"></path>
            <path d="M370.867716,160.928318 C350.305766,135.794434 321.429209,122.509269 287.360912,122.509269 C268.914783,122.509269 252.600905,126.401018 238.600032,134.110731 C238.426321,127.674196 233.171201,122.509269 226.71263,122.509269 L156.541594,122.509269 C149.974259,122.509269 144.649498,127.850808 144.649498,134.438837 L144.649498,373.310422 C144.649498,379.898451 149.974259,385.23999 156.541594,385.23999 L226.71263,385.23999 C233.279966,385.23999 238.604726,379.898451 238.604726,373.310422 L238.604726,250.58611 C238.604726,231.934287 253.731585,216.759764 272.324038,216.759764 C290.917273,216.759764 306.044915,231.934287 306.044915,250.58611 L306.044915,373.310422 C306.044915,379.898451 311.369676,385.23999 317.937011,385.23999 L388.108047,385.23999 C394.675382,385.23999 400.000143,379.898451 400.000143,373.310422 L400.000143,250.58611 C399.999361,215.731488 389.65344,183.889479 370.867716,160.928318 Z M376.215168,361.380854 L329.828325,361.380854 L329.828325,250.58611 C329.828325,218.777853 304.0316,192.900628 272.323256,192.900628 C240.615694,192.900628 214.819752,218.777853 214.819752,250.58611 L214.819752,361.380854 L168.432908,361.380854 L168.432908,146.366835 L214.819752,146.366835 L214.819752,158.024813 C214.819752,162.871838 217.743088,167.237692 222.217296,169.06975 C226.690721,170.900237 231.824557,169.835854 235.206426,166.37347 C248.171299,153.098509 265.718361,146.366835 287.36013,146.366835 C348.740029,146.366835 376.214386,198.709993 376.214386,250.585325 L376.215168,361.380854 Z" id="Shape"></path>
            <path d="M46.4944816,0 C20.8577356,0 0,21.188377 0,47.2324892 C0,73.2766015 20.8577356,94.4649784 46.4944816,94.4649784 C72.1312276,94.4649784 92.9889632,73.2766015 92.9889632,47.2324892 C92.9881887,21.188377 72.1312276,0 46.4944816,0 Z M46.4944816,70.5521343 C33.8371901,70.5521343 23.5395883,60.091691 23.5395883,47.2324892 C23.5395883,34.3732875 33.8371901,23.9128441 46.4944816,23.9128441 C59.151773,23.9128441 69.4493749,34.3740742 69.4493749,47.2324892 C69.4493749,60.0909042 59.1509986,70.5521343 46.4944816,70.5521343 Z" id="Shape"></path>
        </g>
    </g>
</svg>