<?xml version="1.0" encoding="UTF-8"?>
<svg width="400px" height="400px" viewBox="0 0 400 400" version="1.1" xmlns="http://www.w3.org/2000/svg" xmlns:xlink="http://www.w3.org/1999/xlink">
    <!-- Generator: Sketch 49.2 (51160) - http://www.bohemiancoding.com/sketch -->
    <title>Shape</title>
    <desc>Created with Sketch.</desc>
    <defs></defs>
    <g id="Discovery-(v2)" stroke="none" stroke-width="1" fill="none" fill-rule="evenodd">
        <g id="Artboard-2" fill="#FFFFFF" fill-rule="nonzero">
            <g id="git">
                <path d="M199.534247,0 C89.3410959,0 0,89.3410959 0,199.534247 C0,309.739726 89.3410959,399.068493 199.534247,399.068493 C309.727397,399.068493 399.068493,309.739726 399.068493,199.534247 C399.067123,89.3410959 309.726027,0 199.534247,0 Z M255.427397,351.541096 C254.279452,335.927397 252.99589,316.584932 252.920548,308.753425 C252.421918,302.742466 251.772603,287.453425 237.257534,277.689041 C294.884932,272.863014 322.308219,241.012329 324.279452,198.923288 C325.926027,174.954795 316.39726,153.878082 299.475342,136.868493 C300.335616,118.673973 298.926027,97.1109589 297.754795,87.6342466 C284.760274,83.8931507 254.456164,99.8931507 245.987671,106.739726 C228.128767,99.8054795 184.419178,97.3739726 157.856164,106.739726 C139.024658,93.4958904 117.587671,85.3150685 105.90274,87.5972603 C95.1150685,111.50411 102.049315,134.10137 104.156164,136.794521 C90.2630137,149.490411 70.8835616,165.116438 76.1465753,197.852055 C84.5890411,245.852055 118.360274,271.742466 172.732877,278.076712 C161.135616,280.446575 159.176712,289.10137 158.20411,292.854795 C121.689041,307.919178 111.252055,283.552055 106.636986,277.20411 C91.3109589,258.235616 77.5547945,263.735616 76.7068493,264.034247 C75.8835616,264.332877 75.260274,265.530137 75.3479452,266.10411 C76.1205479,270.194521 84.4643836,274.347945 84.8753425,274.683562 C96.1863014,283.113699 100.376712,298.341096 102.957534,302.680822 C119.182192,329.356164 156.894521,318.294521 157.256164,318.519178 C157.280822,320.850685 156.994521,340.480822 156.769863,355.757534 C88.0068493,336.975342 37.4123288,274.246575 37.4123288,199.534247 C37.4123288,109.993151 109.993151,37.4136986 199.532877,37.4136986 C289.072603,37.4136986 361.654795,109.993151 361.654795,199.534247 C361.654795,269.408219 317.383562,328.756164 255.427397,351.541096 Z" id="Shape"></path>
            </g>
        </g>
    </g>
</svg>