<?xml version="1.0" encoding="UTF-8"?>
<svg width="400px" height="400px" viewBox="0 0 400 400" version="1.1" xmlns="http://www.w3.org/2000/svg" xmlns:xlink="http://www.w3.org/1999/xlink">
    <!-- Generator: Sketch 49.2 (51160) - http://www.bohemiancoding.com/sketch -->
    <title>Artboard</title>
    <desc>Created with Sketch.</desc>
    <defs></defs>
    <g id="Artboard" stroke="none" stroke-width="1" fill="none" fill-rule="evenodd">
        <path d="M66.6666667,300 L333.333333,300 C342.5,300 350,292.5 350,283.333333 C350,274.166667 342.5,266.666667 333.333333,266.666667 L66.6666667,266.666667 C57.5,266.666667 50,274.166667 50,283.333333 C50,292.5 57.5,300 66.6666667,300 Z M66.6666667,216.666667 L333.333333,216.666667 C342.5,216.666667 350,209.166667 350,200 C350,190.833333 342.5,183.333333 333.333333,183.333333 L66.6666667,183.333333 C57.5,183.333333 50,190.833333 50,200 C50,209.166667 57.5,216.666667 66.6666667,216.666667 Z M50,116.666667 C50,125.833333 57.5,133.333333 66.6666667,133.333333 L333.333333,133.333333 C342.5,133.333333 350,125.833333 350,116.666667 C350,107.5 342.5,100 333.333333,100 L66.6666667,100 C57.5,100 50,107.5 50,116.666667 Z" id="Shape" fill="#FFFFFF" fill-rule="nonzero"></path>
    </g>
</svg>