<?xml version="1.0" encoding="UTF-8"?>
<svg width="400px" height="385px" viewBox="0 0 400 385" version="1.1" xmlns="http://www.w3.org/2000/svg" xmlns:xlink="http://www.w3.org/1999/xlink">
    <!-- Generator: Sketch 49.2 (51160) - http://www.bohemiancoding.com/sketch -->
    <title>li</title>
    <desc>Created with Sketch.</desc>
    <defs></defs>
    <g id="Discovery-(v2)" stroke="none" stroke-width="1" fill="none" fill-rule="evenodd">
        <g id="li" fill="#FFFFFF" fill-rule="nonzero">
            <path d="M81.7749018,123.505638 L11.8504406,123.505638 C5.30610924,123.505638 0,128.811747 0,135.356079 L0,372.644037 C0,379.188368 5.30610924,384.494477 11.8504406,384.494477 L81.7756816,384.494477 C88.3200129,384.494477 93.6261222,379.188368 93.6261222,372.644037 L93.6261222,135.356079 C93.6253424,128.811747 88.3200129,123.505638 81.7749018,123.505638 Z M69.925241,360.793596 L23.7008812,360.793596 L23.7008812,147.206519 L69.925241,147.206519 L69.925241,360.793596 Z" id="Shape"></path>
            <path d="M370.195663,161.670638 C349.705738,136.703464 320.930329,123.506418 286.981367,123.506418 C268.59985,123.506418 252.343117,127.372353 238.391285,135.030928 C238.218184,128.637086 232.981471,123.506418 226.545523,123.506418 L156.620282,123.506418 C150.075951,123.506418 144.769842,128.812527 144.769842,135.356858 L144.769842,372.644037 C144.769842,379.188368 150.075951,384.494477 156.620282,384.494477 L226.545523,384.494477 C233.089855,384.494477 238.395964,379.188368 238.395964,372.644037 L238.395964,250.73374 C238.395964,232.205633 253.469837,217.13176 271.997164,217.13176 C290.525271,217.13176 305.599923,232.205633 305.599923,250.73374 L305.599923,372.644037 C305.599923,379.188368 310.906032,384.494477 317.450364,384.494477 L387.375605,384.494477 C393.919936,384.494477 399.226045,379.188368 399.226045,372.644037 L399.226045,250.73374 C399.225266,216.110305 388.915585,184.4795 370.195663,161.670638 Z M375.524384,360.793596 L329.300025,360.793596 L329.300025,250.73374 C329.300025,219.136464 303.59366,193.430879 271.996384,193.430879 C240.399888,193.430879 214.694303,219.136464 214.694303,250.73374 L214.694303,360.793596 L168.469943,360.793596 L168.469943,147.20574 L214.694303,147.20574 L214.694303,158.786391 C214.694303,163.601266 217.6074,167.938163 222.065935,169.758068 C226.523691,171.576415 231.639544,170.519092 235.009567,167.079672 C247.929027,153.892763 265.414625,147.20574 286.980587,147.20574 C348.145485,147.20574 375.523605,199.201712 375.523605,250.73296 L375.524384,360.793596 Z" id="Shape"></path>
            <path d="M46.8130611,0.695525268 C21.0006525,0.695525268 0,21.695398 0,47.5078066 C0,73.3202152 21.0006525,94.320088 46.8130611,94.320088 C72.6254697,94.320088 93.6261222,73.3202152 93.6261222,47.5078066 C93.6253424,21.695398 72.6254697,0.695525268 46.8130611,0.695525268 Z M46.8130611,70.6199865 C34.0690421,70.6199865 23.7008812,60.2526054 23.7008812,47.5078066 C23.7008812,34.7630079 34.0690421,24.3956267 46.8130611,24.3956267 C59.5570801,24.3956267 69.925241,34.7637876 69.925241,47.5078066 C69.925241,60.2518256 59.5563004,70.6199865 46.8130611,70.6199865 Z" id="Shape"></path>
        </g>
    </g>
</svg>